# xmcd
#
# Track frame offsets:
#	150
#	19375
#	36060
#	51410
#	69502
#	85862
#	103090
#	118805
#	133287
#	146145
#	170050
#
# Disc length: 2461 seconds
#
# Revision: 2
# Processed by: cddbd v1.4PL0 Copyright (c) Steve Scherf et al.
# Submitted via: EasyCDDAExtractor 4.6.0.1
#
DISCID=a9099b0b
DTITLE=Fagner - Caboclo Sonhador
DYEAR=1900
DGENRE=Forró
TTITLE0=Cavaleiro da noite
TTITLE1=Lembrança de um beijo
TTITLE2=Caboclo sonhador
TTITLE3=Nos tempos de menino
TTITLE4=Proibido cochilar
TTITLE5=Minha vidinha
TTITLE6=Falsa folia
TTITLE7=Baião da garoa
TTITLE8=Fan ran fun fan
TTITLE9=Casamento da raposa
TTITLE10=Estrela guia
EXTD=
EXTT0=
EXTT1=
EXTT2=
EXTT3=
EXTT4=Forr  Desarmado\nForr  n# 1\n
EXTT5=
EXTT6=
EXTT7=
EXTT8=
EXTT9=
EXTT10=
PLAYORDER=
